<?xml version="1.0" encoding="UTF-8" standalone="no"?>
<svg
   width="18"
   height="18"
   viewBox="0 0 4.7625 4.7624998"
   version="1.1"
   id="svg56754"
   inkscape:version="1.1-alpha (65d249f, 2021-01-17)"
   sodipodi:docname="edit.svg"
   xmlns:inkscape="http://www.inkscape.org/namespaces/inkscape"
   xmlns:sodipodi="http://sodipodi.sourceforge.net/DTD/sodipodi-0.dtd"
   xmlns="http://www.w3.org/2000/svg"
   xmlns:svg="http://www.w3.org/2000/svg">
  <sodipodi:namedview
     id="namedview56756"
     pagecolor="#505050"
     bordercolor="#ffffff"
     borderopacity="1"
     objecttolerance="10.0"
     gridtolerance="10.0"
     guidetolerance="10.0"
     inkscape:pageshadow="0"
     inkscape:pageopacity="0"
     inkscape:pagecheckerboard="1"
     inkscape:document-units="mm"
     showgrid="false"
     fit-margin-top="0"
     fit-margin-left="0"
     fit-margin-right="0"
     fit-margin-bottom="0"
     units="px"
     inkscape:zoom="27.680584"
     inkscape:cx="14.956332"
     inkscape:cy="11.903651"
     inkscape:window-width="1756"
     inkscape:window-height="1172"
     inkscape:window-x="104"
     inkscape:window-y="171"
     inkscape:window-maximized="0"
     inkscape:current-layer="layer1" />
  <defs
     id="defs56751" />
  <g
     inkscape:label="Слой 1"
     inkscape:groupmode="layer"
     id="layer1"
     transform="translate(-144.08152,-98.506873)">
    <path
       d="m 144.68919,102.66163 c -0.0195,-0.0195 -0.0367,-0.0464 -0.0513,-0.0806 -0.0142,-0.0342 -0.0219,-0.0634 -0.0219,-0.0878 0,-0.0126 0.003,-0.028 0.008,-0.0475 l 0.21598,-0.87124 c 0.0562,0.0562 0.12074,0.0842 0.194,0.0842 0,0.17571 0.066,0.32946 0.19769,0.46124 0.13176,0.13427 0.28675,0.20133 0.4649,0.20133 0,0.0683 0.0269,0.13176 0.0806,0.19037 l -0.86758,0.21598 c -0.0195,0.005 -0.0378,0.008 -0.0549,0.008 -0.0244,0 -0.0524,-0.006 -0.0842,-0.0183 -0.0318,-0.0142 -0.0586,-0.0329 -0.0806,-0.0549 z m 3.31289,-2.75281 -0.56008,-0.556424 -0.0475,-0.534451 0.53445,0.04754 0.56009,0.556409 0.0475,0.534466 z m 0.0549,-1.336147 -0.97007,-0.0658 -2.33185,2.331827 -0.67354,2.43067 2.43432,-0.67356 2.32818,-2.32818 -0.0622,-0.970064 z m -0.90418,0.798029 -1.92185,1.921828 h -0.008 c -0.1538,0 -0.23062,-0.0683 -0.23062,-0.20499 0,-0.0244 0.003,-0.0513 0.008,-0.0806 l 2.10121,-2.10121 z m -1.46792,2.617368 c -0.0806,0 -0.15379,-0.0329 -0.21964,-0.0989 -0.066,-0.066 -0.0989,-0.13916 -0.0989,-0.21965 0,-0.0367 0.008,-0.0757 0.0219,-0.11711 l 1.89255,-1.896226 0.41367,0.413666 -1.89256,1.89622 c -0.0416,0.0142 -0.0806,0.0219 -0.11712,0.0219 z m 2.40871,-2.730849 c -0.0318,-0.03169 -0.0659,-0.05977 -0.10247,-0.08422 -0.039,-0.02687 -0.0781,-0.04639 -0.11712,-0.05856 -0.0318,-0.0094 -0.0598,-0.01417 -0.0842,-0.01417 -0.0342,0 -0.0611,0.01102 -0.0806,0.0329 -0.0219,0.01953 -0.0329,0.04513 -0.0329,0.07682 0,0.02437 0.006,0.05363 0.0183,0.08784 0.0142,0.03902 0.0342,0.07808 0.0586,0.117118 0.0219,0.03662 0.0501,0.07079 0.0842,0.102479 0.0342,0.03424 0.0696,0.06349 0.1061,0.08784 0.0342,0.02445 0.0719,0.04277 0.1135,0.05494 0.0342,0.0094 0.0622,0.01417 0.0842,0.01417 0.0342,0 0.0611,-0.0085 0.0806,-0.02566 0.0195,-0.01711 0.0293,-0.04518 0.0293,-0.08422 0,-0.02687 -0.005,-0.05615 -0.0142,-0.08784 -0.0126,-0.03902 -0.0305,-0.07687 -0.0549,-0.113498 -0.0244,-0.03661 -0.0537,-0.07199 -0.0878,-0.1061 z m -0.11349,0.944439 0.4649,0.0513 -2.10123,2.10121 c -0.0269,0.005 -0.0524,0.008 -0.0768,0.008 -0.13916,0 -0.20743,-0.0806 -0.20499,-0.2416 z"
       id="path56749" />
  </g>
</svg>
