<svg class="fonico" xmlns="http://www.w3.org/2000/svg" width="500" height="500">
  <symbol id="ficoTria" viewBox="0 0 48 45">
    <path d="M0 0h48L24 45z"/>
  </symbol>
  <symbol id="ficoCheckV" viewBox="0 0 48 48">
    <path d="m5.09 23.3 13.15 19.64c1.04 1.56.9 3.53-.32 4.42-1.21.9-3.03.36-4.07-1.2L.7 26.5c-1.04-1.56-.9-3.53.31-4.42 1.22-.89 3.04-.35 4.08 1.2zm9.91 20L42.99 1.46c.95-1.43 2.76-1.9 3.95-1.03 1.22.9 1.41 2.79.44 4.25L19.39 46.5c-.98 1.46-2.74 1.92-3.96 1.02-1.21-.89-1.4-2.78-.43-4.24z"/>
  </symbol>
  <symbol id="ficoCheckX" viewBox="0 0 48 48">
    <path d="M47.23 4.49 4.49 47.23A2.62 2.62 0 1 1 .77 43.5L43.51.77a2.62 2.62 0 1 1 3.72 3.72z"/>
    <path d="m11 4.02 36.23 36.24a2.62 2.62 0 1 1-3.72 3.72L7.28 7.74a2.62 2.62 0 1 1 3.71-3.72z"/>
  </symbol>
  <symbol id="ficoForward" viewBox="0 0 48 27.5">
    <path d="M41 0v27.5h7V0Z"/>
    <path d="m41 14.5-20.5 13V0L41 13z"/>
    <path d="M20.5 14.5 0 27.5V0l20.5 13z"/>
  </symbol>
  <symbol id="ficoBackward" viewBox="0 0 48 27.5">
    <path d="M0 0v27.5h7V0Z"/>
    <path d="m7 14.5 20.5 13V0L7 13Z"/>
    <path d="m27.5 14.5 20.5 13V0L27.5 13Z"/>
  </symbol>
  <symbol id="ficoPlay" viewBox="0 0 40 48">
    <path d="M38.66 25.57 4.22 47.53c-1.8 1.18-4.4 0-4.2-2.2V2.8C.01.8 2.58-.78 4.58.4l34.58 21.84c1.4 1 .9 2.73-.51 3.33Z"/>
  </symbol>
  <symbol id="ficoPause" viewBox="0 0 40 48">
    <path d="M26.74 0h12.52c.4 0 .74.34.74.74v46.52c0 .4-.34.74-.74.74H26.74a.74.74 0 0 1-.74-.74V.74c0-.4.34-.74.74-.74Z"/>
    <path d="M.74 0h12.52c.4 0 .74.34.74.74v46.52c0 .4-.34.74-.74.74H.74a.74.74 0 0 1-.74-.74V.74C0 .34.34 0 .74 0Z"/>
  </symbol>
  <symbol id="ficoPen" viewBox="0 0 48 48">
    <path d="M6.13 41.87c-1.41-1.47-.21-3.39.06-5.07l1.46-5.87c1.34.78 2.3.94 2.22 2.72a6.93 6.93 0 0 0 6.4 4.8c.58 1.52 1.12 2.19-.75 2.3-2.59.61-5.15 1.36-7.73 1.86a2.43 2.43 0 0 1-1.66-.74Zm33.39-27.74-5.65-5.6-.48-5.38 5.38.48 5.66 5.6.48 5.38zM40.05.67 30.32 0 6.8 23.5 0 48l24.53-6.8L48 17.73 47.36 8 40.08.67Zm-9.09 8.02L11.57 28.08c-2 .48-3.33-2.45-1.65-3.55L30.45 4zm-14.8 26.4c-2.19.06-4.19-2.88-2.7-4.69l18.78-18.83 4.19 4.19-19.1 19.1c-.37.13-.8.23-1.17.23zM40.43 7.57c-1.04-1.78-5.34-2.34-3.9.7.86 1.86 2.99 4.08 5.2 3.25.86-1.33-.37-3.01-1.3-3.95zm-1.15 9.52 4.7.51L22.8 38.77c-1.92.91-3.97-1.97-2.08-3.12Z"/>
  </symbol>
  <symbol id="ficoGear" viewBox="0 0 48 48">
    <path d="m19.93 0-6.1 1.64c1 3.08 1.17 5.4.48 6.95a7.67 7.67 0 0 1-4.74 4.13c-1.72.62-4.22.33-7.48-.86l-2.09 5C3.18 18.39 5.13 20 5.85 21.7c.84 2 .96 4.03.12 6.05-.68 1.63-2.55 3.14-5.64 4.53L4 37.75c2.63-1.85 4.78-2.67 6.45-2.46a7.1 7.1 0 0 1 5.51 3.75c.86 1.58.8 4.02-.2 7.32L22.41 48c.36-3.45 1.22-5.77 2.58-6.96a8.05 8.05 0 0 1 6.38-1.83c1.86.22 4.01 1.72 6.47 4.51l4.49-4.49c-2.96-2.54-4.43-4.81-4.4-6.83a7.41 7.41 0 0 1 2.9-5.67c1.37-1.15 3.76-1.7 7.17-1.64l-.36-6.07c-2.58.36-4.9.15-6.93-.62-1.7-.66-3.94-3.58-3.99-6.35-.02-1.76 1.14-3.86 3.5-6.3L34.94 2.1c-2.25 3.1-4.37 4.83-6.34 5.17-1.7.29-3.27.18-4.82-.62-1.7-.87-2.98-3.1-3.85-6.66zm3.47 12.14a11.26 11.26 0 1 1 0 22.52 11.26 11.26 0 0 1 0-22.52z"/>
  </symbol>
  <symbol id="ficoSong" viewBox="0 0 44 48">
    <path d="M34.44 0C26.2 1.91.9 7.74 0 7.96c-.03 11.2.05 22.43 0 33.63C0 44.99 3.15 48 7.02 48c3.88 0 7.02-3.01 7.02-6.41 0-3.4-3.14-6.16-7.02-6.16-.74 0-1.34.1-2.01.29V17.74c10.74-2.49 23.76-6.2 24.49-6.36l-.02 23.57V35h.02c0 3.37 3.12 5.95 6.99 5.95S43.5 38.37 43.5 35s-3.14-6.5-7.01-6.5c-.7.03-1.38.17-2.02.38L34.44 0z"/>
  </symbol>

  <!-- Preview -->
  <use width="44" height="48" y="5" x=  "5" href="#ficoSong" />
  <use width="48" height="48" y="5" x= "55" href="#ficoGear" />
  <use width="48" height="48" y="5" x="105" href="#ficoPen" />
  <use width="45" height="48" y="5" x="155" href="#ficoTria" />

  <use width="40" height="48"   y="55" x=  "5" href="#ficoPlay" />
  <use width="40" height="48"   y="55" x= "55" href="#ficoPause" />
  <use width="48" height="27.5" y="55" x="105" href="#ficoBackward" />
  <use width="48" height="27.5" y="55" x="155" href="#ficoForward" />

  <use width="48" height="48" y="105" x= "5" href="#ficoCheckV" />
  <use width="48" height="48" y="105" x="55" href="#ficoCheckX" />

</svg>

