<?xml version="1.0" encoding="UTF-8" standalone="no"?>
<svg
   width="23.999811"
   height="24.000076"
   viewBox="0 0 6.3499498 6.3500204"
   version="1.1"
   id="svg139"
   inkscape:version="1.1-alpha (65d249f, 2021-01-17)"
   sodipodi:docname="рисунок.svg"
   xmlns:inkscape="http://www.inkscape.org/namespaces/inkscape"
   xmlns:sodipodi="http://sodipodi.sourceforge.net/DTD/sodipodi-0.dtd"
   xmlns="http://www.w3.org/2000/svg"
   xmlns:svg="http://www.w3.org/2000/svg">
  <sodipodi:namedview
     id="namedview141"
     pagecolor="#505050"
     bordercolor="#ffffff"
     borderopacity="1"
     objecttolerance="10.0"
     gridtolerance="10.0"
     guidetolerance="10.0"
     inkscape:pageshadow="0"
     inkscape:pageopacity="0"
     inkscape:pagecheckerboard="1"
     inkscape:document-units="px"
     showgrid="false"
     fit-margin-top="0"
     fit-margin-left="0"
     fit-margin-right="0"
     fit-margin-bottom="0"
     units="px"
     inkscape:zoom="2.8400393"
     inkscape:cx="-58.097788"
     inkscape:cy="-3.5210781"
     inkscape:window-width="1920"
     inkscape:window-height="1172"
     inkscape:window-x="0"
     inkscape:window-y="0"
     inkscape:window-maximized="1"
     inkscape:current-layer="layer1" />
  <defs
     id="defs136" />
  <g
     inkscape:label="Слой 1"
     inkscape:groupmode="layer"
     id="layer1"
     transform="translate(-189.72954,-144.01905)">
    <path
       d="m 191.55857,144.2363 q 0.20048,0.61116 0.0637,0.91925 c -0.12267,0.27631 -0.34519,0.44691 -0.62693,0.54652 q -0.34147,0.12186 -0.98938,-0.11391 l -0.27642,0.66228 q 0.63118,0.30042 0.77324,0.63765 c 0.11232,0.26571 0.12799,0.53328 0.0167,0.80084 q -0.1341,0.32425 -0.74589,0.59871 l 0.4846,0.72586 q 0.52178,-0.36717 0.85369,-0.32584 c 0.31971,0.0408 0.57568,0.21378 0.72916,0.49645 q 0.17048,0.31339 -0.0263,0.96852 l 0.87918,0.21644 q 0.0714,-0.68427 0.34148,-0.92111 c 0.24031,-0.20928 0.54381,-0.27816 0.84413,-0.24187 q 0.36804,0.0432 0.85635,0.59686 l 0.59321,-0.59341 q -0.5879,-0.50413 -0.58099,-0.90415 c 0.006,-0.30651 0.14923,-0.55553 0.38317,-0.75051 q 0.2719,-0.22782 0.94822,-0.21723 l -0.047,-0.80269 q -0.51381,0.0723 -0.91716,-0.0821 c -0.22517,-0.0866 -0.52177,-0.47261 -0.52788,-0.83899 q -0.005,-0.35048 0.46256,-0.83448 l -0.69836,-0.48135 q -0.44662,0.61646 -0.83855,0.68348 c -0.22597,0.0389 -0.43256,0.0239 -0.63835,-0.0811 q -0.33537,-0.17325 -0.5093,-0.88137 z m 1.17765,1.3802 c 0.82289,0 1.49018,0.66679 1.49018,1.48962 0,0.82309 -0.66729,1.49067 -1.49018,1.49067 -0.82263,0 -1.48912,-0.66758 -1.48912,-1.49067 0,-0.82283 0.66649,-1.48962 1.48912,-1.48962 z"
       fill="#000000"
       id="path13"
       style="isolation:isolate;stroke-width:0.265224" />
  </g>
</svg>
