<?xml version="1.0" encoding="UTF-8" standalone="no"?>
<svg
   width="5.29175mm"
   height="6.350009mm"
   viewBox="0 0 5.29175 6.350009"
   version="1.1"
   id="svg206"
   inkscape:version="1.1-alpha (65d249f, 2021-01-17)"
   sodipodi:docname="pause.svg"
   xmlns:inkscape="http://www.inkscape.org/namespaces/inkscape"
   xmlns:sodipodi="http://sodipodi.sourceforge.net/DTD/sodipodi-0.dtd"
   xmlns="http://www.w3.org/2000/svg"
   xmlns:svg="http://www.w3.org/2000/svg">
  <sodipodi:namedview
     id="namedview208"
     pagecolor="#505050"
     bordercolor="#ffffff"
     borderopacity="1"
     objecttolerance="10.0"
     gridtolerance="10.0"
     guidetolerance="10.0"
     inkscape:pageshadow="0"
     inkscape:pageopacity="0"
     inkscape:pagecheckerboard="1"
     inkscape:document-units="mm"
     showgrid="false"
     fit-margin-top="0"
     fit-margin-left="0"
     fit-margin-right="0"
     fit-margin-bottom="0"
     inkscape:zoom="45.440628"
     inkscape:cx="9.2428299"
     inkscape:cy="0.57217519"
     inkscape:window-width="1920"
     inkscape:window-height="1172"
     inkscape:window-x="0"
     inkscape:window-y="0"
     inkscape:window-maximized="1"
     inkscape:current-layer="layer1" />
  <defs
     id="defs203" />
  <g
     inkscape:label="Слой 1"
     inkscape:groupmode="layer"
     id="layer1"
     transform="translate(-147.9037,-86.26038)">
    <path
       id="rect29"
       style="fill:#000000;stroke-width:0.0264583;paint-order:fill markers stroke"
       d="m 147.9963,86.260383 h 1.66695 c 0.0513,0 0.0926,0.04129 0.0926,0.09257 v 6.164866 c 0,0.05128 -0.0413,0.09257 -0.0926,0.09257 h -1.66695 c -0.0513,0 -0.0926,-0.04129 -0.0926,-0.09257 V 86.35295 c 0,-0.05128 0.0413,-0.09257 0.0926,-0.09257 z" />
    <path
       id="rect31"
       style="fill:#000000;stroke-width:0.0264583;paint-order:fill markers stroke"
       d="m 151.44166,86.260383 h 1.65539 c 0.0545,0 0.0984,0.04386 0.0984,0.09834 v 6.15331 c 0,0.05448 -0.0439,0.09834 -0.0984,0.09834 h -1.65539 c -0.0545,0 -0.0984,-0.04386 -0.0984,-0.09834 v -6.15331 c 0,-0.05448 0.0439,-0.09834 0.0984,-0.09834 z" />
  </g>
</svg>
