<?xml version="1.0" encoding="UTF-8" standalone="no"?>
<svg
   width="16.39888mm"
   height="18.18058mm"
   viewBox="0 0 16.39888 18.18058"
   version="1.1"
   id="svg20741"
   inkscape:version="1.1-alpha (65d249f, 2021-01-17)"
   sodipodi:docname="song.svg"
   xmlns:inkscape="http://www.inkscape.org/namespaces/inkscape"
   xmlns:sodipodi="http://sodipodi.sourceforge.net/DTD/sodipodi-0.dtd"
   xmlns="http://www.w3.org/2000/svg"
   xmlns:svg="http://www.w3.org/2000/svg">
  <sodipodi:namedview
     id="namedview20743"
     pagecolor="#505050"
     bordercolor="#ffffff"
     borderopacity="1"
     objecttolerance="10.0"
     gridtolerance="10.0"
     guidetolerance="10.0"
     inkscape:pageshadow="0"
     inkscape:pageopacity="0"
     inkscape:pagecheckerboard="1"
     inkscape:document-units="mm"
     showgrid="false"
     fit-margin-top="0"
     fit-margin-left="0"
     fit-margin-right="0"
     fit-margin-bottom="0"
     inkscape:zoom="5.6800786"
     inkscape:cx="42.781098"
     inkscape:cy="43.30926"
     inkscape:window-width="1920"
     inkscape:window-height="1172"
     inkscape:window-x="0"
     inkscape:window-y="0"
     inkscape:window-maximized="1"
     inkscape:current-layer="layer1" />
  <defs
     id="defs20738" />
  <g
     inkscape:label="Слой 1"
     inkscape:groupmode="layer"
     id="layer1"
     transform="translate(-172.90721,-145.55839)">
    <path
       d="m 184.01971,158.81428 1.88132,-2.28543 c 0,0 -0.012,-7.50098 -0.013,-10.97046 -3.10568,0.72469 -12.64231,2.93026 -12.98045,3.01466 0.001,2.89216 3e-5,12.73704 3e-5,12.73704 0,0 1.84344,-2.15156 1.83815,-2.21876 0,-4.48522 0.0115,-2.33022 0.0107,-6.81517 4.05157,-0.94086 9.00112,-2.34765 9.27734,-2.40639 7.9e-4,4.0222 -0.0137,8.94451 -0.0137,8.94451 z m 2.64319,2.2561 c 1.45971,0 2.64319,-0.97896 2.64319,-2.2561 0,-1.27741 -1.18348,-2.46116 -2.64319,-2.46116 -1.39819,0.0707 -2.62025,1.15868 -2.64319,2.46116 0,1.27714 1.18348,2.2561 2.64319,2.2561 z m -11.10985,2.66859 c 1.46129,0 2.64583,-1.14036 2.64583,-2.42888 0,-1.28905 -1.18454,-2.33362 -2.64583,-2.33362 -1.4613,0 -2.64584,1.04457 -2.64584,2.33362 0,1.28852 1.18454,2.42888 2.64584,2.42888 z"
       style="fill:#000000;stroke-width:0.00490059"
       id="path20736" />
  </g>
</svg>
